<svg width="440" height="485" viewBox="0 0 440 485" fill="none" xmlns="http://www.w3.org/2000/svg">
<g clip-path="url(#clip0_7_52)">
<path d="M398.07 426.83C406.589 432.937 414.348 440.041 421.18 447.99C429.34 457.64 436.3 469.54 436 482.54L437.5 481.04H8.07003C6.16003 481.04 4.15003 480.87 2.24003 481.04C2.00003 481.04 1.74003 481.04 1.50003 481.04L3.00003 482.54C3.15646 477.9 4.08238 473.317 5.74003 468.98C9.63003 457.78 16.97 448.06 26.05 440.52C33.9719 434.144 42.8692 429.086 52.4 425.54C54.18 424.84 53.4 421.94 51.6 422.64C27.6 431.98 5.02003 450.42 0.600029 477.09C0.254944 478.904 0.0642616 480.744 0.0300293 482.59C0.0352092 482.986 0.194906 483.365 0.475096 483.645C0.755285 483.925 1.13382 484.085 1.53003 484.09H419.8C425.45 484.09 431.11 484.19 436.8 484.09H437.5C437.895 484.082 438.273 483.922 438.552 483.642C438.832 483.363 438.992 482.985 439 482.59C439.47 462.05 423.86 444.44 409.2 431.88C406.1 429.213 402.897 426.683 399.59 424.29C398.02 423.15 396.53 425.75 398.07 426.88V426.83Z" fill="#B1A8FF"/>
<path d="M255.5 354.05C261.83 354.05 268.17 354.14 274.5 354.26C276.43 354.26 276.43 351.26 274.5 351.26C268.17 351.14 261.83 351.09 255.5 351.05C255.102 351.05 254.721 351.208 254.439 351.489C254.158 351.771 254 352.152 254 352.55C254 352.948 254.158 353.329 254.439 353.611C254.721 353.892 255.102 354.05 255.5 354.05Z" fill="#B1A8FF"/>
<path d="M149.5 353.97H169.5C169.898 353.97 170.279 353.812 170.561 353.531C170.842 353.249 171 352.868 171 352.47C171 352.072 170.842 351.691 170.561 351.409C170.279 351.128 169.898 350.97 169.5 350.97H149.5C149.102 350.97 148.721 351.128 148.439 351.409C148.158 351.691 148 352.072 148 352.47C148 352.868 148.158 353.249 148.439 353.531C148.721 353.812 149.102 353.97 149.5 353.97Z" fill="#B1A8FF"/>
<path d="M150.5 407.54C150.5 407.54 173.89 422.54 210.18 422.54C246.47 422.54 275.5 407.54 275.5 407.54" stroke="#B1A8FF" stroke-width="3" stroke-miterlimit="10"/>
<path d="M272.84 342.85C273.57 370.9 274.62 399.13 273.32 427.18C273.286 431.543 272.861 435.893 272.05 440.18C271.994 440.403 271.99 440.635 272.036 440.86C272.083 441.085 272.179 441.296 272.318 441.479C272.457 441.661 272.636 441.81 272.841 441.914C273.045 442.018 273.27 442.075 273.5 442.08C283.61 442.55 293.74 442.73 303.85 442.8C323.26 442.93 342.76 442.64 362.08 440.71C370.388 440.039 378.626 438.681 386.71 436.65C389.679 435.892 392.563 434.837 395.32 433.5C396.92 432.7 399.63 431.43 400 429.5C400.182 428.084 400.269 426.658 400.26 425.23C400.473 421.69 400.667 418.143 400.84 414.59C401.507 402.15 402.033 389.703 402.42 377.25C403.02 359.77 403.42 342.283 403.62 324.79C403.84 304.55 403.737 284.31 403.31 264.07C402.83 243.32 401.95 222.56 400.36 201.86C398.91 182.98 396.91 164.1 393.65 145.44C391.08 130.68 387.84 115.78 382.12 101.88C379.768 96.1301 376.801 90.6516 373.27 85.5399C366.82 76.2 360.05 67.0699 352.74 58.3799C338.84 41.8699 322.74 26.8899 303.74 16.3799C283.83 5.37995 261.46 0.109951 238.74 -0.0500488C224.959 -0.0404842 211.216 1.41752 197.74 4.29995C193.913 5.12662 190.1 6.02662 186.3 6.99995C184.5 7.44995 182.72 7.92995 180.93 8.41995C179.14 8.90995 177.23 9.84995 175.49 10.04C175.014 10.0431 174.539 10.0063 174.07 9.92995C165.197 9.63912 156.336 10.8218 147.85 13.43C131.29 18.2299 116.29 27.43 103.85 39.32C84.5 57.74 71.66 81.7199 62.36 106.54C52.36 133.15 46.36 161.06 43 189.25C39.43 219.46 39 249.97 39.93 280.35C41 313.55 43.79 346.67 46.93 379.73C48.55 396.73 50.27 413.64 51.93 430.59C51.9414 430.916 52.0533 431.23 52.2502 431.489C52.4471 431.749 52.7195 431.941 53.03 432.04C61.64 435.04 70.47 437.58 79.31 439.86C95.79 444.11 112.86 447.64 129.94 447.86C138.13 447.95 146.62 447.25 154.19 443.92C154.418 443.789 154.606 443.599 154.736 443.37C154.866 443.142 154.933 442.883 154.93 442.62C152.67 418.67 151.21 394.62 150.66 370.55C150.44 360.97 150.39 351.38 150.73 341.81C150.79 339.88 147.79 339.88 147.73 341.81C146.65 372.81 148.73 403.95 151.25 434.81C151.47 437.42 151.69 440.02 151.93 442.62L152.67 441.32C146.2 444.18 138.84 444.81 131.85 444.86C123.376 444.799 114.923 444.023 106.58 442.54C91.767 440.034 77.1453 436.506 62.82 431.98C59.82 431.06 56.82 430.12 53.9 429.08L55 430.54C52 401.14 49 371.74 46.62 342.28C44.41 315.08 42.75 287.8 42.52 260.5C42.1217 235.122 43.4581 209.746 46.52 184.55C49.5029 160.427 54.9857 136.679 62.88 113.69C70.71 91.3299 81.11 69.4899 96.57 51.3499C107.27 38.7799 120.31 28.18 135.35 21.25C144.808 16.8374 154.957 14.0937 165.35 13.1399C168.076 12.8885 170.815 12.8117 173.55 12.91C178.05 13.1 182.31 11.09 186.66 9.97995C209.07 4.23995 232.47 1.26995 255.55 4.04995C274.188 6.29837 292.111 12.5844 308.07 22.47C323.75 32.18 337.26 44.9799 349.21 58.9599C355.53 66.35 361.43 74.1 367.07 82.03C370.785 86.9638 374.076 92.2024 376.91 97.6899C382.06 108.31 385.2 119.91 387.75 131.39C390.907 146.039 393.274 160.847 394.84 175.75C396.74 192.69 397.99 209.75 398.84 226.75C399.75 244.35 400.26 261.98 400.49 279.6C400.71 296.5 400.71 313.4 400.49 330.3C400.29 345.133 399.957 359.96 399.49 374.78C399.117 385.987 398.663 397.19 398.13 408.39C397.83 414.65 397.497 420.903 397.13 427.15L397 429.54L397.44 428.48C392.65 432.91 384.72 434.21 378.57 435.38C368.486 437.159 358.299 438.291 348.07 438.77C327.71 439.99 307.27 440 286.88 439.48C282.42 439.37 277.96 439.25 273.5 439.04L274.95 440.94C275.661 437.313 276.072 433.634 276.18 429.94C276.52 424.11 276.64 418.27 276.71 412.44C276.9 397.49 276.71 382.53 276.41 367.59C276.25 359.33 276.06 351.077 275.84 342.83C275.84 340.9 272.84 340.89 272.84 342.83V342.85Z" fill="#CDEBFF"/>
<path d="M274.98 343.23C284.602 336.473 293.223 328.394 300.59 319.23C307.547 310.593 313.621 301.279 318.72 291.43C326.667 276.103 332.743 259.877 336.82 243.1C337.38 240.77 337.9 238.42 338.34 236.1C338.657 234.738 338.871 233.354 338.98 231.96C338.98 231.83 338.98 231.69 338.98 231.56L337.08 233.01C338.93 233.63 340.898 233.811 342.83 233.54C347.83 233 352.21 230.33 355.72 226.84C358.987 223.452 361.721 219.588 363.83 215.38C364.72 213.67 362.13 212.15 361.23 213.86C358.23 219.65 354.23 225.55 348.31 228.73C346.635 229.654 344.805 230.264 342.91 230.53H342.59H342.06H341.01H340.13H339.73C339.29 230.53 339.9 230.53 339.57 230.53C338.993 230.45 338.427 230.31 337.88 230.11C337.657 230.052 337.424 230.046 337.199 230.092C336.973 230.137 336.761 230.234 336.578 230.373C336.395 230.513 336.246 230.692 336.142 230.898C336.039 231.103 335.983 231.33 335.98 231.56C335.97 231.895 335.94 232.229 335.89 232.56C335.89 232.73 335.95 232.16 335.89 232.56C335.89 232.72 335.89 232.89 335.82 233.06L335.64 234.11C335.28 236.19 334.85 238.26 334.38 240.33C332.831 247.044 330.946 253.676 328.73 260.2C325.756 269.064 322.188 277.716 318.05 286.1C313.306 295.788 307.658 305.005 301.18 313.63C294.313 322.808 286.214 330.995 277.11 337.96C275.91 338.873 274.69 339.757 273.45 340.61C271.88 341.7 273.37 344.3 274.97 343.2L274.98 343.23Z" fill="#FFAEDA"/>
<path d="M148.5 342.44C162.559 352.214 178.728 358.529 195.69 360.87C213.95 363.41 232.98 362.04 250.4 355.82C259.1 352.71 267.356 348.477 274.96 343.23C276.54 342.14 275.04 339.54 273.44 340.64C259.815 350.054 244.128 356.059 227.7 358.15C209.552 360.527 191.099 358.546 173.87 352.37C165.417 349.234 157.402 345.026 150.02 339.85C148.43 338.75 146.93 341.35 148.5 342.44Z" fill="#FFAEDA"/>
<path d="M88.8 166.78C85.1 160.35 78.31 154.3 70.64 153.87C67.9262 153.728 65.2203 154.273 62.7731 155.455C60.3259 156.636 58.2164 158.416 56.64 160.63C53.64 164.72 52.59 169.93 52.16 174.87C51.59 181.31 52.49 187.77 53.8 194.07C55.56 202.53 58.31 211.07 62.8 218.43C67.29 225.79 74.1 232.22 82.93 233.68C84.0851 233.87 85.2505 233.99 86.42 234.04L84.97 232.94C85.38 235.48 85.97 238.01 86.52 240.52C88.04 247.08 89.89 253.52 92.02 259.95C95.007 268.972 98.5916 277.785 102.75 286.33C107.561 296.27 113.328 305.718 119.97 314.54C127.083 324.047 135.456 332.542 144.86 339.79C146.06 340.71 147.28 341.6 148.52 342.46C150.11 343.58 151.61 340.98 150.04 339.87C140.425 333.019 131.841 324.826 124.55 315.54C117.776 306.932 111.883 297.665 106.96 287.88C102.634 279.369 98.905 270.568 95.8 261.54C93.52 254.93 91.53 248.22 89.9 241.42C89.17 238.42 88.75 235.26 87.97 232.25C87.9652 232.207 87.9652 232.163 87.97 232.12C87.8794 231.805 87.6892 231.527 87.4279 231.329C87.1665 231.131 86.848 231.022 86.52 231.02C69.13 230.29 61.09 211.2 57.52 196.72C56.0325 191.168 55.1869 185.464 55 179.72C54.92 171.29 56.76 159.91 66.28 157.34C74.54 155.1 82.28 161.49 86.2 168.34C86.4162 168.654 86.7431 168.874 87.1151 168.957C87.4871 169.04 87.8767 168.979 88.2057 168.787C88.5347 168.595 88.7788 168.285 88.8891 167.92C88.9993 167.555 88.9675 167.162 88.8 166.82V166.78Z" fill="#FFAEDA"/>
<path d="M174.55 300.44C175.16 302.22 176.95 303.55 178.55 304.44C183.72 307.31 190.11 307.54 195.87 307.56C208.95 307.61 222.24 308.34 235.12 305.64C241.64 304.28 248.27 301.88 253.12 297.12C254.5 295.76 252.38 293.64 251 295C247.05 298.89 241.74 301 236.45 302.27C230.228 303.677 223.878 304.438 217.5 304.54C211.37 304.75 205.24 304.64 199.11 304.54C193.27 304.47 187.11 304.75 181.61 302.54C180.802 302.218 180.028 301.816 179.3 301.34C178.83 301.075 178.405 300.738 178.04 300.34C177.91 300.21 177.51 299.7 177.8 300.1L177.52 299.69C177.32 299.37 177.36 299.32 177.52 299.69C176.9 297.87 174 298.69 174.62 300.49L174.55 300.44Z" fill="#FFAEDA"/>
<path d="M204 322.54C209.982 323.195 216.018 323.195 222 322.54C222.395 322.53 222.77 322.369 223.049 322.089C223.329 321.81 223.49 321.435 223.5 321.04C223.497 320.643 223.339 320.263 223.058 319.982C222.777 319.702 222.397 319.543 222 319.54C216.018 320.195 209.982 320.195 204 319.54C203.602 319.54 203.221 319.698 202.939 319.979C202.658 320.261 202.5 320.642 202.5 321.04C202.51 321.435 202.671 321.81 202.951 322.089C203.23 322.369 203.605 322.53 204 322.54Z" fill="#FFAEDA"/>
<path d="M183.1 158.75C177.972 157.358 172.761 156.286 167.5 155.54C156.95 153.96 146.03 153.09 135.5 155.41C129.9 156.64 124.32 159.12 120.29 163.3C118.11 165.56 117.87 169.56 120.29 171.78C121.425 172.884 122.946 173.502 124.53 173.502C126.114 173.502 127.635 172.884 128.77 171.78C129.12 171.43 129.47 171.08 129.84 170.78L130.37 170.34C131.21 169.62 129.28 171.1 129.98 170.64C130.83 170.08 131.67 169.52 132.57 169.04C133.04 168.8 133.57 168.61 133.99 168.36C134.41 168.11 132.47 168.97 133.46 168.59L134.27 168.28C135.346 167.891 136.44 167.557 137.55 167.28C138.66 167 139.78 166.77 140.91 166.58L141.71 166.45C142.82 166.28 140.79 166.56 141.19 166.52C141.83 166.45 142.46 166.37 143.1 166.31C145.52 166.092 147.95 165.998 150.38 166.03C152.82 166.03 155.26 166.18 157.68 166.38C158.87 166.48 160.05 166.6 161.23 166.74L162.95 166.95L163.34 167C163.026 166.936 162.709 166.893 162.39 166.87C162.72 166.94 163.08 166.96 163.39 167.01C167.15 167.55 170.887 168.233 174.6 169.06C176.37 169.45 178.15 169.86 179.9 170.36C181.436 170.784 183.077 170.581 184.463 169.795C185.849 169.01 186.866 167.706 187.29 166.17C187.714 164.634 187.511 162.993 186.726 161.607C185.94 160.221 184.636 159.204 183.1 158.78V158.75Z" fill="#CDEBFF"/>
<path d="M239.74 170.75C244.638 169.424 249.61 168.389 254.63 167.65L256.26 167.41L257.03 167.3C257.92 167.17 255.39 167.51 256.6 167.36C257.81 167.21 258.91 167.08 260.07 166.96C262.53 166.713 264.993 166.547 267.46 166.46C269.9 166.39 272.34 166.46 274.78 166.56C275.98 166.64 277.17 166.76 278.35 166.9C279.35 167.01 276.85 166.67 277.84 166.83L278.64 166.95C279.25 167.05 279.86 167.17 280.47 167.29C281.69 167.55 282.91 167.85 284.1 168.23C284.7 168.42 285.29 168.62 285.88 168.85C286.14 168.95 287.16 169.37 286.07 168.92C284.98 168.47 285.99 168.92 286.24 169.01C287.312 169.514 288.342 170.102 289.32 170.77C289.55 170.93 290.39 171.56 289.47 170.85C288.55 170.14 289.36 170.77 289.58 170.95C290.04 171.35 290.48 171.77 290.91 172.21C292.041 173.322 293.564 173.944 295.15 173.944C296.736 173.944 298.259 173.322 299.39 172.21C300.488 171.07 301.102 169.548 301.102 167.965C301.102 166.382 300.488 164.86 299.39 163.72C292 156.05 280.29 154.43 270.14 154.42C260.732 154.543 251.364 155.679 242.2 157.81C240.31 158.22 238.42 158.66 236.55 159.18C235.016 159.603 233.712 160.618 232.927 162.002C232.141 163.386 231.937 165.026 232.36 166.56C232.783 168.094 233.798 169.398 235.182 170.183C236.566 170.969 238.206 171.173 239.74 170.75Z" fill="#CDEBFF"/>
<path d="M149.5 259.04C177.39 259.04 200 236.43 200 208.54C200 180.65 177.39 158.04 149.5 158.04C121.61 158.04 99 180.65 99 208.54C99 236.43 121.61 259.04 149.5 259.04Z" stroke="#B1A8FF" stroke-width="4" stroke-miterlimit="10"/>
<path d="M274 257.54C301.89 257.54 324.5 234.93 324.5 207.04C324.5 179.15 301.89 156.54 274 156.54C246.11 156.54 223.5 179.15 223.5 207.04C223.5 234.93 246.11 257.54 274 257.54Z" stroke="#B1A8FF" stroke-width="4" stroke-miterlimit="10"/>
<path d="M199.59 215.04C199.28 215.04 211.89 204.04 224.5 215.54" stroke="#B1A8FF" stroke-width="4" stroke-miterlimit="10"/>
<path d="M320.15 186.53L331.5 165.54" stroke="#B1A8FF" stroke-width="4" stroke-miterlimit="10"/>
<path d="M103.95 186.73L92.5 168.54" stroke="#B1A8FF" stroke-width="4" stroke-miterlimit="10"/>
<path d="M147.5 194.54V214.54C147.534 217.317 148.637 219.975 150.58 221.96C151.554 222.936 152.71 223.71 153.983 224.239C155.257 224.767 156.621 225.039 158 225.039C159.379 225.039 160.743 224.767 162.017 224.239C163.29 223.71 164.446 222.936 165.42 221.96C167.355 219.97 168.457 217.315 168.5 214.54V194.54C168.466 191.763 167.363 189.105 165.42 187.12C164.446 186.144 163.29 185.37 162.017 184.841C160.743 184.313 159.379 184.041 158 184.041C156.621 184.041 155.257 184.313 153.983 184.841C152.71 185.37 151.554 186.144 150.58 187.12C148.645 189.11 147.543 191.764 147.5 194.54Z" fill="#CDEBFF"/>
<path d="M253.5 194.54V214.54C253.534 217.317 254.637 219.975 256.58 221.96C257.553 222.936 258.71 223.71 259.983 224.239C261.256 224.767 262.621 225.039 264 225.039C265.379 225.039 266.744 224.767 268.017 224.239C269.29 223.71 270.447 222.936 271.42 221.96C273.355 219.97 274.457 217.315 274.5 214.54V194.54C274.466 191.763 273.363 189.105 271.42 187.12C270.447 186.144 269.29 185.37 268.017 184.841C266.744 184.313 265.379 184.041 264 184.041C262.621 184.041 261.256 184.313 259.983 184.841C258.71 185.37 257.553 186.144 256.58 187.12C254.645 189.11 253.543 191.764 253.5 194.54Z" fill="#CDEBFF"/>
<path d="M206.55 229.64C205.01 235.44 203.517 241.25 202.07 247.07C201.07 251.01 200.13 254.96 199.31 258.93C198.686 261.344 198.436 263.84 198.57 266.33C199.08 271.56 203.44 275.58 206.94 279.1C207.224 279.365 207.6 279.509 207.989 279.502C208.378 279.495 208.748 279.338 209.023 279.063C209.298 278.788 209.456 278.418 209.462 278.029C209.469 277.64 209.325 277.264 209.06 276.98C206.886 274.947 204.917 272.707 203.18 270.29C202.346 269.134 201.794 267.798 201.57 266.39C201.479 265.359 201.479 264.321 201.57 263.29C201.57 263.21 201.63 262.85 201.57 263.29C201.57 263.16 201.57 263.04 201.62 262.92L201.74 262.23C201.86 261.5 202.01 260.78 202.15 260.06C203.75 252.26 205.79 244.54 207.79 236.84C208.34 234.72 208.89 232.6 209.46 230.48C209.528 230.109 209.455 229.725 209.254 229.406C209.053 229.086 208.74 228.853 208.376 228.752C208.012 228.652 207.624 228.691 207.288 228.863C206.952 229.035 206.692 229.326 206.56 229.68L206.55 229.64Z" fill="#FFAEDA"/>
<path d="M85.91 167.54C86.36 168.8 87 169 88.09 169.23C89.3216 169.481 90.5672 169.658 91.82 169.76C96.2987 170.093 100.802 169.776 105.19 168.82C112.232 167.279 118.983 164.625 125.19 160.96C134.39 155.489 142.744 148.708 149.99 140.83C160.62 129.57 169.52 116.73 177.31 103.39C178.49 101.39 179.64 99.39 180.78 97.3L178.42 97.6C179.489 98.9068 180.641 100.143 181.87 101.3C185.46 104.746 189.29 107.934 193.33 110.84C208.85 122.17 226.61 130.37 244.68 136.72C251.26 139.033 257.927 141.103 264.68 142.93C272.03 144.93 279.49 146.47 286.87 148.36C298.542 151.243 309.775 155.675 320.27 161.54C334.27 169.54 346.5 180.85 354.14 195.19C356.425 199.429 358.239 203.906 359.55 208.54C359.97 210.05 360.34 211.54 360.63 213.13C360.73 213.65 360.81 214.13 360.9 214.69V214.95C360.95 215.27 360.85 214.48 360.9 214.86C360.9 214.99 360.9 215.13 360.95 215.26V215.58C360.957 215.907 361.067 216.223 361.265 216.483C361.462 216.744 361.737 216.935 362.05 217.03L362.43 217.1C364.31 217.5 365.12 214.61 363.22 214.21L362.85 214.13L363.95 215.58C363.48 209.46 361.22 203.3 358.7 197.78C352.44 184.01 341.96 172.52 329.61 163.92C320.317 157.567 310.182 152.542 299.5 148.99C292.891 146.82 286.171 145.001 279.37 143.54C271.997 141.853 264.69 139.92 257.45 137.74C237.17 131.6 217.22 123.36 199.55 111.53C192.696 107.009 186.39 101.707 180.76 95.73L180.56 95.49C180.397 95.3286 180.2 95.2065 179.983 95.1328C179.765 95.0591 179.534 95.0359 179.307 95.0648C179.079 95.0937 178.862 95.174 178.67 95.2997C178.478 95.4253 178.317 95.593 178.2 95.79C170.58 109.54 161.94 122.86 151.5 134.7C144.427 142.987 136.227 150.241 127.14 156.25C121.022 160.279 114.306 163.317 107.24 165.25C102.77 166.49 98.136 167.037 93.5 166.87C92.73 166.87 91.96 166.78 91.2 166.7H90.73C90.45 166.7 90.2 166.63 90.55 166.7L89.76 166.58C89.1645 166.402 88.556 166.272 87.94 166.19H87.86L88.86 167.19L88.72 166.79C88.08 164.98 85.18 165.79 85.82 167.59L85.91 167.54Z" fill="#CDEBFF"/>
<path d="M76.1 221.09C71.78 222.7 67.85 226.43 67.53 231.22C67.4286 233.146 67.8175 235.067 68.6605 236.802C69.5035 238.537 70.773 240.029 72.35 241.14C73.7564 241.986 75.3587 242.452 76.9996 242.493C78.6405 242.533 80.2637 242.146 81.71 241.37C83.4371 240.494 84.8905 239.161 85.9116 237.516C86.9326 235.87 87.4821 233.976 87.5 232.04C87.5 231.642 87.342 231.261 87.0607 230.979C86.7794 230.698 86.3978 230.54 86 230.54C85.6022 230.54 85.2206 230.698 84.9393 230.979C84.658 231.261 84.5 231.642 84.5 232.04C84.4886 233.294 84.1644 234.525 83.5567 235.621C82.949 236.718 82.077 237.646 81.02 238.32C80.5372 238.64 80.0165 238.898 79.47 239.09C79.178 239.192 78.8809 239.279 78.58 239.35C78.3339 239.414 78.0831 239.457 77.83 239.48C77.5 239.48 77.17 239.48 76.83 239.48H76.37C76.2773 239.495 76.1827 239.495 76.09 239.48C75.79 239.41 75.49 239.35 75.19 239.25C74.9375 239.183 74.6953 239.082 74.47 238.95C73.242 238.198 72.2287 237.142 71.528 235.885C70.8273 234.627 70.4629 233.21 70.47 231.77C70.4718 230.622 70.7827 229.496 71.37 228.51C71.5212 228.238 71.6916 227.977 71.88 227.73C72.03 227.51 71.82 227.79 71.99 227.58C72.16 227.37 72.2 227.34 72.3 227.21C72.6809 226.797 73.0849 226.407 73.51 226.04L73.86 225.76H73.81L74.01 225.62C74.23 225.46 74.45 225.3 74.68 225.15C75.08 224.9 75.49 224.66 75.91 224.44C76.33 224.22 76.52 224.14 76.83 223.99C77.14 223.84 76.45 224.14 76.83 223.99C77.1974 223.862 77.5036 223.601 77.6886 223.259C77.8736 222.917 77.924 222.517 77.83 222.14C77.7203 221.758 77.4651 221.434 77.1193 221.237C76.7734 221.041 76.3644 220.988 75.98 221.09H76.1Z" fill="#B1A8FF"/>
<path d="M356.02 216.68H356.29C356.04 216.68 355.92 216.63 356.29 216.68L356.75 216.76C357.59 216.922 358.416 217.149 359.22 217.44L359.54 217.57L359.7 217.63C359.9 217.71 359.46 217.53 359.7 217.63L360.46 218C360.971 218.263 361.459 218.567 361.92 218.91C362.15 219.07 361.82 218.81 362.03 219C362.138 219.081 362.241 219.168 362.34 219.26C362.572 219.471 362.793 219.695 363 219.93C363.07 220 363.29 220.27 363.24 220.2L363.41 220.44C363.599 220.718 363.769 221.009 363.92 221.31C364.044 221.524 364.141 221.753 364.21 221.99C364.332 222.343 364.429 222.704 364.5 223.07C364.621 223.8 364.658 224.542 364.61 225.28C364.534 226.827 364.077 228.332 363.28 229.66C362.616 230.748 361.669 231.637 360.54 232.23C360.029 232.522 359.476 232.735 358.9 232.86C358.62 232.931 358.336 232.988 358.05 233.03C358.32 233.03 357.87 233.03 357.8 233.03C357.633 233.04 357.467 233.04 357.3 233.03C357.11 233.04 356.92 233.04 356.73 233.03C356.64 233.03 356.14 232.96 356.42 233.03C356.082 232.97 355.748 232.89 355.42 232.79L354.95 232.63H354.87L354.66 232.53C354.341 232.368 354.034 232.184 353.74 231.98C353.49 231.81 353.74 231.98 353.53 231.82L353.1 231.42C352.98 231.3 352.87 231.17 352.75 231.04C352.663 230.952 352.585 230.855 352.52 230.75C352.066 230.118 351.727 229.41 351.52 228.66C350.98 226.81 348.08 227.6 348.62 229.46C349.049 231.083 349.926 232.552 351.152 233.698C352.378 234.844 353.902 235.621 355.55 235.94C357.186 236.209 358.863 236.07 360.433 235.536C362.003 235.003 363.417 234.09 364.55 232.88C365.853 231.4 366.779 229.626 367.249 227.711C367.719 225.796 367.719 223.795 367.25 221.88C366.845 220.419 366.124 219.065 365.137 217.914C364.15 216.763 362.922 215.843 361.54 215.22C359.815 214.378 357.951 213.852 356.04 213.67C355.642 213.67 355.261 213.828 354.979 214.109C354.698 214.391 354.54 214.772 354.54 215.17C354.54 215.568 354.698 215.949 354.979 216.231C355.261 216.512 355.642 216.67 356.04 216.67L356.02 216.68Z" fill="#B1A8FF"/>
<path d="M344.8 221.68H345.07C344.9 221.68 344.71 221.62 345.07 221.68L345.54 221.76C346.384 221.928 347.213 222.162 348.02 222.46L348.41 222.61C348.68 222.71 348.23 222.52 348.5 222.61C348.77 222.7 349.03 222.86 349.3 223C349.806 223.269 350.291 223.576 350.75 223.92C350.55 223.77 350.81 223.98 350.87 224.03L351.23 224.35C351.45 224.557 351.66 224.777 351.86 225.01C352 225.18 352.02 225.21 352.02 225.22L352.27 225.58C352.46 225.873 352.627 226.181 352.77 226.5C352.809 226.569 352.839 226.643 352.86 226.72C352.92 226.87 352.97 227.02 353.02 227.18C353.139 227.552 353.23 227.934 353.29 228.32C353.371 229.078 353.371 229.842 353.29 230.6C353.209 232.079 352.686 233.5 351.79 234.68C351.093 235.499 350.198 236.125 349.19 236.5C348.88 236.6 348.57 236.68 348.26 236.75L347.94 236.81H347.48C347.18 236.81 346.88 236.81 346.58 236.81H346.05C345.961 236.824 345.869 236.824 345.78 236.81C344.355 236.593 343.022 235.973 341.938 235.023C340.853 234.074 340.063 232.834 339.66 231.45C339.545 231.077 339.289 230.764 338.947 230.577C338.604 230.39 338.203 230.343 337.827 230.447C337.451 230.551 337.13 230.798 336.933 231.134C336.735 231.471 336.677 231.871 336.77 232.25C337.255 233.929 338.148 235.461 339.369 236.711C340.591 237.96 342.103 238.887 343.77 239.41C345.329 239.921 346.991 240.032 348.603 239.733C350.216 239.435 351.728 238.735 353 237.7C356 235.21 356.83 230.78 356.05 227.13C355.688 225.636 354.993 224.242 354.019 223.053C353.044 221.863 351.814 220.909 350.42 220.26C348.655 219.37 346.738 218.821 344.77 218.64C344.373 218.643 343.993 218.802 343.712 219.082C343.432 219.363 343.273 219.743 343.27 220.14C343.278 220.535 343.438 220.913 343.718 221.192C343.997 221.472 344.375 221.632 344.77 221.64L344.8 221.68Z" fill="#B1A8FF"/>
</g>
<defs>
<clipPath id="clip0_7_52">
<rect width="439.01" height="484.09" fill="white"/>
</clipPath>
</defs>
</svg>
